<?xml version="1.0" standalone="no"?>
<!DOCTYPE svg PUBLIC "-//W3C//DTD SVG 20010904//EN"
 "http://www.w3.org/TR/2001/REC-SVG-20010904/DTD/svg10.dtd">
<svg version="1.0" xmlns="http://www.w3.org/2000/svg"
 width="225.000000pt" height="225.000000pt" viewBox="0 0 225.000000 225.000000"
 preserveAspectRatio="xMidYMid meet">
<metadata>
Created by potrace 1.11, written by Peter Selinger 2001-2013
</metadata>
<g transform="translate(0.000000,225.000000) scale(0.100000,-0.100000)"
fill="#000000" stroke="none">
<path d="M0 1125 l0 -1125 1125 0 1125 0 0 1125 0 1125 -1125 0 -1125 0 0
-1125z m985 735 c0 -9 -15 -17 -42 -22 -93 -15 -138 -61 -153 -155 -13 -77
-13 -543 -1 -543 39 0 425 392 505 514 73 109 72 156 -2 172 -58 13 -77 21
-77 35 0 12 42 14 260 14 212 0 260 -3 260 -14 0 -7 -21 -21 -46 -30 -115 -44
-260 -164 -548 -454 l-154 -155 237 -276 c398 -464 453 -514 596 -534 40 -5
56 -12 58 -25 3 -16 -13 -17 -220 -16 l-223 1 -182 216 c-232 277 -406 469
-434 477 -11 4 -26 2 -32 -4 -15 -15 -13 -463 3 -516 22 -75 70 -113 164 -130
41 -7 61 -16 61 -26 0 -12 -48 -14 -314 -17 -293 -2 -350 2 -328 24 3 4 28 10
54 15 57 11 91 34 118 80 19 33 20 55 23 634 2 571 2 602 -16 635 -23 42 -91
80 -144 80 -31 0 -38 3 -38 20 0 20 5 20 308 18 262 -3 307 -5 307 -18z"/>
</g>
</svg>
